<mxfile host="app.diagrams.net" modified="2023-07-10T11:47:27.512Z" agent="Mozilla/5.0 (Windows NT 10.0; Win64; x64) AppleWebKit/537.36 (KHTML, like Gecko) Chrome/114.0.0.0 Safari/537.36" etag="W5Viwt3WKiSk-RBQ52zy" version="21.2.1" type="github">
  <diagram name="Page-1" id="QKq4AHpZra5xfbNQWS_R">
    <mxGraphModel dx="2600" dy="2075" grid="1" gridSize="10" guides="1" tooltips="1" connect="1" arrows="1" fold="1" page="1" pageScale="1" pageWidth="850" pageHeight="1100" math="0" shadow="0">
      <root>
        <mxCell id="0" />
        <mxCell id="1" parent="0" />
        <mxCell id="KkRfMMAH-QFb7I6BU0pS-10" style="edgeStyle=orthogonalEdgeStyle;rounded=0;orthogonalLoop=1;jettySize=auto;html=1;entryX=0.5;entryY=1;entryDx=0;entryDy=0;exitX=0.5;exitY=0;exitDx=0;exitDy=0;" edge="1" parent="1" source="KkRfMMAH-QFb7I6BU0pS-48" target="KkRfMMAH-QFb7I6BU0pS-32">
          <mxGeometry relative="1" as="geometry">
            <mxPoint x="315" y="160" as="targetPoint" />
          </mxGeometry>
        </mxCell>
        <mxCell id="7" value="uses" style="curved=1;startArrow=none;endArrow=block;exitX=1;exitY=0.25;entryX=0;entryY=1;entryDx=0;entryDy=-15;entryPerimeter=0;exitDx=0;exitDy=0;" parent="1" source="KkRfMMAH-QFb7I6BU0pS-70" target="KkRfMMAH-QFb7I6BU0pS-22" edge="1">
          <mxGeometry relative="1" as="geometry">
            <Array as="points" />
            <mxPoint x="-190" y="140.10076577421228" as="sourcePoint" />
            <mxPoint x="170" y="105" as="targetPoint" />
          </mxGeometry>
        </mxCell>
        <mxCell id="KkRfMMAH-QFb7I6BU0pS-32" value="CTS Database" style="swimlane;whiteSpace=wrap;html=1;" vertex="1" parent="1">
          <mxGeometry x="-300" y="-80" width="290" height="230" as="geometry" />
        </mxCell>
        <mxCell id="KkRfMMAH-QFb7I6BU0pS-22" value="CIS_Release" style="shape=cylinder3;whiteSpace=wrap;html=1;boundedLbl=1;backgroundOutline=1;size=15;" vertex="1" parent="KkRfMMAH-QFb7I6BU0pS-32">
          <mxGeometry x="40" y="50" width="80" height="80" as="geometry" />
        </mxCell>
        <mxCell id="KkRfMMAH-QFb7I6BU0pS-23" value="CIS_Prod" style="shape=cylinder3;whiteSpace=wrap;html=1;boundedLbl=1;backgroundOutline=1;size=15;" vertex="1" parent="KkRfMMAH-QFb7I6BU0pS-32">
          <mxGeometry x="175" y="50" width="80" height="80" as="geometry" />
        </mxCell>
        <mxCell id="KkRfMMAH-QFb7I6BU0pS-25" value="VYPEICTSDBS01.JSE.CO.ZA&amp;nbsp;" style="text;html=1;strokeColor=none;fillColor=none;align=center;verticalAlign=middle;whiteSpace=wrap;rounded=0;" vertex="1" parent="KkRfMMAH-QFb7I6BU0pS-32">
          <mxGeometry x="60" y="160" width="180" height="31" as="geometry" />
        </mxCell>
        <mxCell id="KkRfMMAH-QFb7I6BU0pS-35" value="CTS Release" style="swimlane;whiteSpace=wrap;html=1;" vertex="1" parent="1">
          <mxGeometry x="-820" y="-280" width="390" height="340" as="geometry" />
        </mxCell>
        <mxCell id="KkRfMMAH-QFb7I6BU0pS-74" value="" style="group" vertex="1" connectable="0" parent="KkRfMMAH-QFb7I6BU0pS-35">
          <mxGeometry x="60" y="100" width="250" height="196" as="geometry" />
        </mxCell>
        <mxCell id="KkRfMMAH-QFb7I6BU0pS-66" value="VYPEICTSRAPP01.JSE.CO.ZA&amp;nbsp;" style="swimlane;fontStyle=0;childLayout=stackLayout;horizontal=1;startSize=26;fillColor=none;horizontalStack=0;resizeParent=1;resizeParentMax=0;resizeLast=0;collapsible=1;marginBottom=0;html=1;" vertex="1" parent="KkRfMMAH-QFb7I6BU0pS-74">
          <mxGeometry width="240" height="78" as="geometry" />
        </mxCell>
        <mxCell id="KkRfMMAH-QFb7I6BU0pS-67" value="Jse.Ei.Clearing.TradeCaptureReport" style="text;strokeColor=none;fillColor=none;align=left;verticalAlign=top;spacingLeft=4;spacingRight=4;overflow=hidden;rotatable=0;points=[[0,0.5],[1,0.5]];portConstraint=eastwest;whiteSpace=wrap;html=1;" vertex="1" parent="KkRfMMAH-QFb7I6BU0pS-66">
          <mxGeometry y="26" width="240" height="26" as="geometry" />
        </mxCell>
        <mxCell id="KkRfMMAH-QFb7I6BU0pS-68" value="Jse.Ei.Clearing.Pricing" style="text;strokeColor=none;fillColor=none;align=left;verticalAlign=top;spacingLeft=4;spacingRight=4;overflow=hidden;rotatable=0;points=[[0,0.5],[1,0.5]];portConstraint=eastwest;whiteSpace=wrap;html=1;" vertex="1" parent="KkRfMMAH-QFb7I6BU0pS-66">
          <mxGeometry y="52" width="240" height="26" as="geometry" />
        </mxCell>
        <mxCell id="KkRfMMAH-QFb7I6BU0pS-70" value="VYPEICTSRAPP02.JSE.CO.ZA&amp;nbsp;" style="swimlane;fontStyle=0;childLayout=stackLayout;horizontal=1;startSize=26;fillColor=none;horizontalStack=0;resizeParent=1;resizeParentMax=0;resizeLast=0;collapsible=1;marginBottom=0;html=1;" vertex="1" parent="KkRfMMAH-QFb7I6BU0pS-74">
          <mxGeometry y="110" width="250" height="86" as="geometry" />
        </mxCell>
        <mxCell id="KkRfMMAH-QFb7I6BU0pS-71" value="Jse.Ei.Tis.NewsGateway.Connector.Sens" style="text;strokeColor=none;fillColor=none;align=left;verticalAlign=top;spacingLeft=4;spacingRight=4;overflow=hidden;rotatable=0;points=[[0,0.5],[1,0.5]];portConstraint=eastwest;whiteSpace=wrap;html=1;" vertex="1" parent="KkRfMMAH-QFb7I6BU0pS-70">
          <mxGeometry y="26" width="250" height="26" as="geometry" />
        </mxCell>
        <mxCell id="KkRfMMAH-QFb7I6BU0pS-72" value="Jse.Ei.Tis.NewsGateway.Connector.Nens" style="text;strokeColor=none;fillColor=none;align=left;verticalAlign=top;spacingLeft=4;spacingRight=4;overflow=hidden;rotatable=0;points=[[0,0.5],[1,0.5]];portConstraint=eastwest;whiteSpace=wrap;html=1;" vertex="1" parent="KkRfMMAH-QFb7I6BU0pS-70">
          <mxGeometry y="52" width="250" height="34" as="geometry" />
        </mxCell>
        <mxCell id="KkRfMMAH-QFb7I6BU0pS-87" value="MIT v Prod" style="rounded=1;whiteSpace=wrap;html=1;" vertex="1" parent="KkRfMMAH-QFb7I6BU0pS-35">
          <mxGeometry x="30" y="40" width="80" height="20" as="geometry" />
        </mxCell>
        <mxCell id="KkRfMMAH-QFb7I6BU0pS-88" value="RTC v Prod" style="rounded=1;whiteSpace=wrap;html=1;" vertex="1" parent="KkRfMMAH-QFb7I6BU0pS-35">
          <mxGeometry x="270" y="40" width="80" height="20" as="geometry" />
        </mxCell>
        <mxCell id="KkRfMMAH-QFb7I6BU0pS-48" value="CTS Batch Server" style="swimlane;whiteSpace=wrap;html=1;startSize=20;" vertex="1" parent="1">
          <mxGeometry x="-327.5" y="250" width="345" height="190" as="geometry" />
        </mxCell>
        <mxCell id="KkRfMMAH-QFb7I6BU0pS-51" value="CTSR_Batch" style="swimlane;fontStyle=0;childLayout=stackLayout;horizontal=1;startSize=30;horizontalStack=0;resizeParent=1;resizeParentMax=0;resizeLast=0;collapsible=1;marginBottom=0;whiteSpace=wrap;html=1;" vertex="1" parent="KkRfMMAH-QFb7I6BU0pS-48">
          <mxGeometry x="15" y="30" width="140" height="60" as="geometry" />
        </mxCell>
        <mxCell id="KkRfMMAH-QFb7I6BU0pS-52" value="CommonDataUpload" style="text;strokeColor=none;fillColor=none;align=left;verticalAlign=middle;spacingLeft=4;spacingRight=4;overflow=hidden;points=[[0,0.5],[1,0.5]];portConstraint=eastwest;rotatable=0;whiteSpace=wrap;html=1;" vertex="1" parent="KkRfMMAH-QFb7I6BU0pS-51">
          <mxGeometry y="30" width="140" height="30" as="geometry" />
        </mxCell>
        <mxCell id="KkRfMMAH-QFb7I6BU0pS-55" value="VYPEICTSBAT01.JSE.CO.ZA&amp;nbsp;" style="text;html=1;strokeColor=none;fillColor=none;align=center;verticalAlign=middle;whiteSpace=wrap;rounded=0;" vertex="1" parent="KkRfMMAH-QFb7I6BU0pS-48">
          <mxGeometry x="85" y="150" width="170" height="30" as="geometry" />
        </mxCell>
        <mxCell id="KkRfMMAH-QFb7I6BU0pS-62" value="CTSP_Batch" style="swimlane;fontStyle=0;childLayout=stackLayout;horizontal=1;startSize=30;horizontalStack=0;resizeParent=1;resizeParentMax=0;resizeLast=0;collapsible=1;marginBottom=0;whiteSpace=wrap;html=1;" vertex="1" parent="KkRfMMAH-QFb7I6BU0pS-48">
          <mxGeometry x="195" y="30" width="140" height="60" as="geometry" />
        </mxCell>
        <mxCell id="KkRfMMAH-QFb7I6BU0pS-63" value="CommonDataUpload" style="text;strokeColor=none;fillColor=none;align=left;verticalAlign=middle;spacingLeft=4;spacingRight=4;overflow=hidden;points=[[0,0.5],[1,0.5]];portConstraint=eastwest;rotatable=0;whiteSpace=wrap;html=1;" vertex="1" parent="KkRfMMAH-QFb7I6BU0pS-62">
          <mxGeometry y="30" width="140" height="30" as="geometry" />
        </mxCell>
        <mxCell id="KkRfMMAH-QFb7I6BU0pS-65" style="edgeStyle=orthogonalEdgeStyle;rounded=0;orthogonalLoop=1;jettySize=auto;html=1;entryX=0.5;entryY=1;entryDx=0;entryDy=0;" edge="1" parent="1" source="KkRfMMAH-QFb7I6BU0pS-52" target="KkRfMMAH-QFb7I6BU0pS-35">
          <mxGeometry relative="1" as="geometry" />
        </mxCell>
        <mxCell id="KkRfMMAH-QFb7I6BU0pS-83" value="" style="group" vertex="1" connectable="0" parent="1">
          <mxGeometry x="130" y="-280" width="390" height="360" as="geometry" />
        </mxCell>
        <mxCell id="KkRfMMAH-QFb7I6BU0pS-64" style="edgeStyle=orthogonalEdgeStyle;rounded=0;orthogonalLoop=1;jettySize=auto;html=1;" edge="1" parent="KkRfMMAH-QFb7I6BU0pS-83" source="KkRfMMAH-QFb7I6BU0pS-62">
          <mxGeometry relative="1" as="geometry">
            <mxPoint x="236.36363636363632" y="360" as="targetPoint" />
          </mxGeometry>
        </mxCell>
        <mxCell id="KkRfMMAH-QFb7I6BU0pS-75" value="CTS Production (Prod +1)" style="swimlane;whiteSpace=wrap;html=1;" vertex="1" parent="KkRfMMAH-QFb7I6BU0pS-83">
          <mxGeometry width="389.9999999999999" height="360" as="geometry" />
        </mxCell>
        <mxCell id="KkRfMMAH-QFb7I6BU0pS-76" value="" style="group" vertex="1" connectable="0" parent="KkRfMMAH-QFb7I6BU0pS-75">
          <mxGeometry x="39.99636363636363" y="70.00333333333333" width="295.4545454545454" height="261.3333333333333" as="geometry" />
        </mxCell>
        <mxCell id="KkRfMMAH-QFb7I6BU0pS-77" value="VYPEICTSPAPP01.JSE.CO.ZA&amp;nbsp;" style="swimlane;fontStyle=0;childLayout=stackLayout;horizontal=1;startSize=26;fillColor=none;horizontalStack=0;resizeParent=1;resizeParentMax=0;resizeLast=0;collapsible=1;marginBottom=0;html=1;" vertex="1" parent="KkRfMMAH-QFb7I6BU0pS-76">
          <mxGeometry y="20.78470588235294" width="283.63636363636357" height="95.33333333333333" as="geometry" />
        </mxCell>
        <mxCell id="KkRfMMAH-QFb7I6BU0pS-78" value="Jse.Ei.Clearing.TradeCaptureReport" style="text;strokeColor=none;fillColor=none;align=left;verticalAlign=top;spacingLeft=4;spacingRight=4;overflow=hidden;rotatable=0;points=[[0,0.5],[1,0.5]];portConstraint=eastwest;whiteSpace=wrap;html=1;" vertex="1" parent="KkRfMMAH-QFb7I6BU0pS-77">
          <mxGeometry y="26" width="283.63636363636357" height="34.666666666666664" as="geometry" />
        </mxCell>
        <mxCell id="KkRfMMAH-QFb7I6BU0pS-79" value="Jse.Ei.Clearing.Pricing" style="text;strokeColor=none;fillColor=none;align=left;verticalAlign=top;spacingLeft=4;spacingRight=4;overflow=hidden;rotatable=0;points=[[0,0.5],[1,0.5]];portConstraint=eastwest;whiteSpace=wrap;html=1;" vertex="1" parent="KkRfMMAH-QFb7I6BU0pS-77">
          <mxGeometry y="60.666666666666664" width="283.63636363636357" height="34.666666666666664" as="geometry" />
        </mxCell>
        <mxCell id="KkRfMMAH-QFb7I6BU0pS-80" value="VYPEICTSPAPP02.JSE.CO.ZA&amp;nbsp;" style="swimlane;fontStyle=0;childLayout=stackLayout;horizontal=1;startSize=26;fillColor=none;horizontalStack=0;resizeParent=1;resizeParentMax=0;resizeLast=0;collapsible=1;marginBottom=0;html=1;" vertex="1" parent="KkRfMMAH-QFb7I6BU0pS-76">
          <mxGeometry y="146.66666666666669" width="295.4545454545454" height="106" as="geometry" />
        </mxCell>
        <mxCell id="KkRfMMAH-QFb7I6BU0pS-81" value="Jse.Ei.Tis.NewsGateway.Connector.Sens" style="text;strokeColor=none;fillColor=none;align=left;verticalAlign=top;spacingLeft=4;spacingRight=4;overflow=hidden;rotatable=0;points=[[0,0.5],[1,0.5]];portConstraint=eastwest;whiteSpace=wrap;html=1;" vertex="1" parent="KkRfMMAH-QFb7I6BU0pS-80">
          <mxGeometry y="26" width="295.4545454545454" height="34.666666666666664" as="geometry" />
        </mxCell>
        <mxCell id="KkRfMMAH-QFb7I6BU0pS-82" value="Jse.Ei.Tis.NewsGateway.Connector.Nens" style="text;strokeColor=none;fillColor=none;align=left;verticalAlign=top;spacingLeft=4;spacingRight=4;overflow=hidden;rotatable=0;points=[[0,0.5],[1,0.5]];portConstraint=eastwest;whiteSpace=wrap;html=1;" vertex="1" parent="KkRfMMAH-QFb7I6BU0pS-80">
          <mxGeometry y="60.666666666666664" width="295.4545454545454" height="45.333333333333336" as="geometry" />
        </mxCell>
        <mxCell id="KkRfMMAH-QFb7I6BU0pS-89" value="MIT v Prod + 1" style="rounded=1;whiteSpace=wrap;html=1;" vertex="1" parent="KkRfMMAH-QFb7I6BU0pS-75">
          <mxGeometry x="10" y="40" width="100" height="20" as="geometry" />
        </mxCell>
        <mxCell id="KkRfMMAH-QFb7I6BU0pS-90" value="RTC v Prod" style="rounded=1;whiteSpace=wrap;html=1;" vertex="1" parent="KkRfMMAH-QFb7I6BU0pS-75">
          <mxGeometry x="250" y="40" width="80" height="20" as="geometry" />
        </mxCell>
        <mxCell id="KkRfMMAH-QFb7I6BU0pS-85" value="uses" style="curved=1;startArrow=none;endArrow=block;exitX=0;exitY=0.25;entryX=1;entryY=0;entryDx=0;entryDy=27.5;entryPerimeter=0;exitDx=0;exitDy=0;" edge="1" parent="1" source="KkRfMMAH-QFb7I6BU0pS-77" target="KkRfMMAH-QFb7I6BU0pS-23">
          <mxGeometry relative="1" as="geometry">
            <Array as="points" />
            <mxPoint x="-210" y="-161" as="sourcePoint" />
            <mxPoint x="-10" y="-80" as="targetPoint" />
          </mxGeometry>
        </mxCell>
        <mxCell id="KkRfMMAH-QFb7I6BU0pS-86" value="uses" style="curved=1;startArrow=none;endArrow=block;exitX=0;exitY=0.25;entryX=1;entryY=1;entryDx=0;entryDy=-15;entryPerimeter=0;exitDx=0;exitDy=0;" edge="1" parent="1" source="KkRfMMAH-QFb7I6BU0pS-80" target="KkRfMMAH-QFb7I6BU0pS-23">
          <mxGeometry relative="1" as="geometry">
            <Array as="points" />
            <mxPoint x="85" y="-20" as="sourcePoint" />
            <mxPoint x="-40" y="118" as="targetPoint" />
          </mxGeometry>
        </mxCell>
        <mxCell id="KkRfMMAH-QFb7I6BU0pS-84" value="uses" style="curved=1;startArrow=none;endArrow=block;exitX=1;exitY=0.25;entryX=0;entryY=0;entryDx=0;entryDy=27.5;entryPerimeter=0;exitDx=0;exitDy=0;" edge="1" parent="1" source="KkRfMMAH-QFb7I6BU0pS-66" target="KkRfMMAH-QFb7I6BU0pS-22">
          <mxGeometry relative="1" as="geometry">
            <Array as="points" />
            <mxPoint x="-560" y="-173" as="sourcePoint" />
            <mxPoint x="-370" y="-137" as="targetPoint" />
          </mxGeometry>
        </mxCell>
      </root>
    </mxGraphModel>
  </diagram>
</mxfile>
